HIERARCHY
ROOT Bip001_Pelvis
{
  OFFSET 32.8599 95.8771 -27.9544
  CHANNELS 6 Xposition Yposition Zposition Zrotation Xrotation Yrotation
  JOINT Bip001_Spine
  {
    OFFSET 1.4188e-005 10.2191 -0.0116013
    CHANNELS 3 Zrotation Xrotation Yrotation
    JOINT Bip001_L_Thigh
    {
      OFFSET 11.0458 -10.2191 0.0116197
      CHANNELS 3 Zrotation Xrotation Yrotation
      JOINT Bip001_L_Calf
      {
        OFFSET -0.707118 -44.0221 0.360014
        CHANNELS 3 Zrotation Xrotation Yrotation
        JOINT Bip001_L_Foot
        {
          OFFSET -0.651902 -40.5938 -3.56146
          CHANNELS 3 Zrotation Xrotation Yrotation
          JOINT Bip001_L_Toe0
          {
            OFFSET 0.0530839 -10.2181 13.1504
            CHANNELS 3 Zrotation Xrotation Yrotation
            End Site
            {
              OFFSET -1.02532e-005 0 7.55606
            }
          }
        }
      }
    }
    JOINT Bip001_R_Thigh
    {
      OFFSET -11.0458 -10.2191 0.0115893
      CHANNELS 3 Zrotation Xrotation Yrotation
      JOINT Bip001_R_Calf
      {
        OFFSET 0.706994 -44.0221 0.35984
        CHANNELS 3 Zrotation Xrotation Yrotation
        JOINT Bip001_R_Foot
        {
          OFFSET 0.651787 -40.5938 -3.5613
          CHANNELS 3 Zrotation Xrotation Yrotation
          JOINT Bip001_R_Toe0
          {
            OFFSET -0.0531479 -10.2181 13.1504
            CHANNELS 3 Zrotation Xrotation Yrotation
            End Site
            {
              OFFSET -1.02894e-005 0 7.55606
            }
          }
        }
      }
    }
    JOINT Bip001_Spine1
    {
      OFFSET 1.87041e-005 14.5736 1.08638
      CHANNELS 3 Zrotation Xrotation Yrotation
      JOINT Bip001_Spine2
      {
        OFFSET 2.24614e-005 14.5058 -1.69078
        CHANNELS 3 Zrotation Xrotation Yrotation
        JOINT Bip001_Neck
        {
          OFFSET 2.20278e-005 15.3945 -0.489414
          CHANNELS 3 Zrotation Xrotation Yrotation
          JOINT Bip001_L_Clavicle
          {
            OFFSET 6.06036 -0.000579998 0.00836775
            CHANNELS 3 Zrotation Xrotation Yrotation
            JOINT Bip001_L_UpperArm
            {
              OFFSET 11.5509 -0.0600302 0.00193952
              CHANNELS 3 Zrotation Xrotation Yrotation
              JOINT Bip001_L_Forearm
              {
                OFFSET 25.9523 0.0806089 -2.15551
                CHANNELS 3 Zrotation Xrotation Yrotation
                JOINT Bip001_L_Hand
                {
                  OFFSET 32.2475 0.153767 1.63968
                  CHANNELS 3 Zrotation Xrotation Yrotation
                  JOINT Bip001_L_Finger0
                  {
                    OFFSET 6.04639 -2.20976 5.90322
                    CHANNELS 3 Zrotation Xrotation Yrotation
                    End Site
                    {
                      OFFSET 4.22375 -1.43895 0.606486
                    }
                  }
                  JOINT Bip001_L_Finger1
                  {
                    OFFSET 11.0826 -0.704819 -0.198153
                    CHANNELS 3 Zrotation Xrotation Yrotation
                    End Site
                    {
                      OFFSET 6.20027 -0.397518 -0.0787166
                    }
                  }
                }
              }
            }
          }
          JOINT Bip001_R_Clavicle
          {
            OFFSET -6.06036 -0.000563197 0.00835105
            CHANNELS 3 Zrotation Xrotation Yrotation
            JOINT Bip001_R_UpperArm
            {
              OFFSET -11.5509 -0.0599978 0.00190698
              CHANNELS 3 Zrotation Xrotation Yrotation
              JOINT Bip001_R_Forearm
              {
                OFFSET -25.9523 0.0806819 -2.1559
                CHANNELS 3 Zrotation Xrotation Yrotation
                JOINT Bip001_R_Hand
                {
                  OFFSET -32.2476 0.153857 1.63991
                  CHANNELS 3 Zrotation Xrotation Yrotation
                  JOINT Bip001_R_Finger0
                  {
                    OFFSET -6.04642 -2.20975 5.9032
                    CHANNELS 3 Zrotation Xrotation Yrotation
                    End Site
                    {
                      OFFSET -4.22376 -1.43894 0.606473
                    }
                  }
                  JOINT Bip001_R_Finger1
                  {
                    OFFSET -11.0826 -0.70479 -0.198183
                    CHANNELS 3 Zrotation Xrotation Yrotation
                    End Site
                    {
                      OFFSET -6.20028 -0.397501 -0.0787337
                    }
                  }
                }
              }
            }
          }
          JOINT Bip001_Head
          {
            OFFSET 1.09673e-005 11.2744 2.05948
            CHANNELS 3 Zrotation Xrotation Yrotation
            End Site
            {
              OFFSET 2.89576e-005 20.8808 -2.77728e-005
            }
          }
        }
      }
    }
  }
}
MOTION
Frames:	15
Frame Time:	0.04
33.1858 95.9431 -28.7093 0.225231 -0.444764 4.30767 -0.326334 2.06427 0.450619 5.26805 -3.37239 4.60038 -1.06965 6.77837 -11.4782 5.49311 -1.45505 -0.202812 -1.36088 -5.23825 2.62506 -2.87162 -2.1521 -2.24331 0.212577 9.52181 0.0500309 -6.19924 -8.78853 -0.0949522 2.25206 -7.58193 2.28362 -0.66653 4.13505 0.911807 -0.668253 4.13506 0.912706 0.531387 -10.656 -4.55583 -25.3352 10.8234 1.95849 -55.1767 43.9053 2.36247 17.1191 2.19494 -21.9972 9.55112 1.87627 -4.23197 3.18055e-015 -6.36111e-015 1.59028e-015 -3.18055e-015 -3.18056e-015 3.18055e-015 20.0833 18.8234 22.9738 56.8164 -9.47914 29.8005 -13.7244 8.72486 104.709 -74.4627 32.4963 48.7505 -1.76556e-031 -6.36111e-015 -1.59028e-015 -4.41391e-032 -3.18056e-015 -7.95139e-016 -0.0674158 -2.25885 -4.24504 
33.1573 95.9396 -28.7225 0.208139 -0.289096 4.49084 -0.341986 2.0592 0.54479 5.31508 -3.60482 4.68532 -1.06246 6.84861 -11.8308 5.50317 -1.4476 -0.202322 -1.3622 -5.24283 2.62525 -2.81679 -2.29889 -2.20782 0.233868 9.56161 -0.012267 -6.26833 -8.76483 -0.339699 2.25416 -7.5881 2.28336 -0.705787 4.11888 1.10323 -0.705044 4.11885 1.10316 0.667797 -10.972 -4.89047 -25.5614 11.0099 2.20509 -55.0608 43.6611 2.23159 17.1645 2.46133 -22.1651 9.57881 1.76561 -4.21781 -3.18055e-015 0 -1.59028e-015 0 0 -0 19.2194 19.3445 24.2951 55.7916 -7.20953 32.3213 -15.3406 9.04806 101.165 -76.8663 30.7264 48.7964 -7.95139e-016 0 -0 -7.95139e-016 9.54167e-015 -7.95139e-016 -0.195229 -2.10119 -4.50753 
33.1112 95.9302 -28.7144 0.178231 -0.214846 4.6538 -0.35908 2.073 0.624481 5.40627 -3.81018 5.01079 -1.02952 7.03971 -12.3937 5.32749 -1.59633 -0.200908 -1.40938 -5.16761 2.68941 -2.71345 -2.36076 -2.28166 0.187103 9.57673 -0.145039 -6.27798 -8.77631 -0.369545 2.25605 -7.60737 2.28272 -0.741509 4.14192 1.2632 -0.741509 4.1419 1.2632 0.937783 -11.2194 -5.17158 -25.7209 11.1678 2.28365 -55.0829 43.2439 2.08285 17.216 2.80002 -22.3206 9.57217 1.70972 -4.21725 3.18055e-015 0 3.18055e-015 1.76556e-031 -3.18056e-015 3.18055e-015 18.0209 19.6964 25.63 53.8497 -4.00336 35.2407 -15.5007 7.48094 93.919 -78.8519 29.5542 50.3211 -7.95139e-016 -1.27222e-014 -0 7.95139e-016 -1.27222e-014 -0 -0.43271 -2.05784 -4.67225 
33.1639 95.9377 -28.7665 0.218395 0.00742656 4.69345 -0.372742 2.02958 0.711395 5.23444 -4.0214 4.84477 -0.879083 6.99435 -12.3185 5.40818 -1.52403 -0.198601 -1.37439 -5.19798 2.64067 -2.84209 -2.58253 -1.69846 0.419583 9.61218 -0.257111 -6.43794 -8.67542 -0.945709 2.2565 -7.61949 2.27785 -0.773628 4.05443 1.43728 -0.77256 4.05435 1.43742 1.09205 -11.2132 -5.38496 -25.893 11.1421 2.16707 -55.1509 43.2197 2.19572 17.1101 2.75963 -22.4138 9.59362 1.85243 -4.28239 -6.36111e-015 3.18055e-015 -0 -3.18055e-015 3.18056e-015 1.59028e-015 16.3422 19.5598 26.9904 46.3446 3.34482 35.458 -20.0726 -0.718097 83.3837 -74.3565 29.6409 47.8464 -1.59028e-015 0 -0 -0 -6.36111e-015 -0 -0.545217 -1.87149 -4.82122 
33.0935 95.9472 -28.77 0.017625 0.092765 4.8154 -0.348193 2.02689 0.820884 5.48458 -4.2878 4.63449 -0.917001 7.26508 -12.3018 5.05003 -1.80818 -0.171025 -1.51195 -4.99156 2.76465 -2.59135 -2.53477 -1.59908 0.410265 9.32392 -0.291579 -6.5015 -8.47132 -1.19698 2.25357 -7.59176 2.28242 -0.73013 4.05079 1.65622 -0.727884 4.05064 1.65612 0.902621 -11.8601 -5.73542 -26.0622 11.6418 2.58068 -54.621 43.9062 1.82308 17.0269 2.61289 -22.1675 9.45296 1.88444 -4.41829 3.18055e-015 3.18055e-015 1.59028e-015 -1.76556e-031 3.18056e-015 3.18055e-015 15.3826 20.1554 27.965 50.1215 1.40319 37.9027 -16.8832 -4.43882 81.8866 -82.9927 30.3242 61.3714 -7.95139e-016 -9.54166e-015 3.97569e-016 7.95139e-016 -9.54167e-015 1.19271e-015 -0.122506 -1.11845 -5.28008 
33.0318 95.9581 -28.8225 -0.181244 0.356367 5.05898 -0.394419 1.98604 0.830677 5.77293 -4.73098 4.12781 -0.989891 7.4928 -11.933 4.7907 -1.96172 -0.15577 -1.52326 -4.9034 2.75699 -2.30605 -2.6376 -1.25534 0.47557 9.00452 -0.37738 -6.61558 -8.20088 -1.67663 2.24583 -7.58476 2.28445 -0.814124 3.96613 1.67431 -0.820389 3.96607 1.67535 1.44314 -11.8208 -6.05183 -26.8064 11.3422 3.00991 -53.8621 43.8515 1.6993 17.1791 2.88962 -22.2417 9.54873 1.86235 -4.37001 -0 0 1.59028e-015 -8.82782e-032 3.18056e-015 1.59028e-015 16.4305 20.4561 27.3785 52.6815 -2.79373 36.1728 -13.4077 2.68853 89.8812 -81.8903 29.1111 57.2516 -0 0 3.97569e-016 -0 0 3.97569e-016 -0.164325 -1.26073 -5.44896 
33.0657 95.9632 -28.8248 0.0102267 0.413726 5.17438 -0.416529 1.8906 0.701244 5.49397 -4.55314 4.17352 -0.842635 7.19081 -11.9453 4.95854 -1.74085 -0.171274 -1.46686 -4.93126 2.69485 -2.52498 -2.66559 -1.27592 0.525115 9.22082 -0.394965 -6.60731 -8.33682 -1.6655 2.2406 -7.5687 2.28341 -0.860984 3.77591 1.41775 -0.857205 3.776 1.41759 1.6209 -10.8045 -6.00076 -26.7443 10.4359 2.51228 -54.7063 42.6569 2.63764 17.0102 3.02652 -22.4158 10.3517 1.86925 -4.29198 7.94503e-031 9.54166e-015 -4.77083e-015 -3.18055e-015 9.54167e-015 -4.77083e-015 16.8286 19.3592 26.3547 51.548 -0.916769 35.849 -17.4311 5.23996 90.6069 -80.7761 28.175 53.461 -0 0 1.98785e-016 7.95139e-016 0 7.95139e-016 -0.603674 -1.28841 -5.27613 
33.1287 95.9529 -28.788 0.368221 0.0918258 4.66517 -0.409662 1.9044 0.550864 5.0421 -3.82774 5.02291 -0.673863 6.67839 -12.3199 5.15564 -1.39172 -0.196477 -1.42663 -5.08954 2.67293 -2.95564 -2.72324 -1.5375 0.459274 9.9438 -0.223018 -6.43402 -8.76867 -0.974797 2.22849 -7.51363 2.24835 -0.836837 3.80473 1.11635 -0.83823 3.80472 1.11627 1.07007 -10.6266 -5.38226 -25.9524 10.3863 2.67758 -55.6247 42.4468 2.92285 17.0741 3.69369 -22.1561 10.0694 1.70287 -4.28546 -3.18055e-015 6.36111e-015 -1.59028e-015 -3.18055e-015 6.36111e-015 -3.18055e-015 17.5291 19.0715 25.961 49.5961 0.363543 34.609 -12.46 -0.0757771 88.6312 -79.6809 26.8737 58.37 -3.97569e-016 6.36111e-015 -1.19271e-015 -1.19271e-015 6.36111e-015 -7.95139e-016 -0.449364 -0.955021 -4.83287 
33.0559 95.9323 -28.7416 0.327613 -0.377362 4.06491 -0.378911 1.97761 0.484234 5.2403 -3.39435 5.566 -0.765454 6.95822 -12.2285 4.52056 -1.89246 -0.149427 -1.61011 -4.80308 2.86967 -2.84427 -2.51434 -2.27986 0.121792 10.181 0.0937076 -6.15766 -9.0167 0.104265 2.20607 -7.46409 2.25627 -0.772852 3.95189 0.982558 -0.773787 3.9519 0.982385 0.638043 -10.8188 -4.90428 -25.3971 10.6753 2.80925 -55.8344 43.1607 2.93048 17.0228 3.58567 -21.7907 8.99324 2.05722 -4.21571 3.18055e-015 3.18055e-015 -0 -0 0 1.59028e-015 18.2378 19.4138 26.2203 48.9126 0.383917 33.6534 -15.8671 2.6385 88.5247 -77.6232 29.7231 51.2888 1.59028e-015 -3.18055e-015 -7.95139e-016 7.95139e-016 0 -7.95139e-016 0.00105017 -0.95702 -4.56059 
33.0701 95.9268 -28.8333 0.331988 -0.29331 3.41735 -0.372492 1.94938 0.560693 5.09759 -3.41009 5.94246 -0.58281 6.96982 -12.0509 5.12893 -1.6654 -0.182992 -1.43729 -5.07624 2.69471 -2.95098 -2.86444 -2.37373 0.110496 10.4552 0.232353 -5.99324 -9.12442 0.619669 2.18701 -7.38675 2.20986 -0.763304 3.89504 1.13488 -0.763588 3.89497 1.13489 0.966719 -10.7044 -4.8861 -25.8288 10.5591 2.68691 -55.7331 44.1233 3.06148 16.9416 3.00456 -21.6003 8.29763 2.08535 -4.08048 3.18055e-015 0 -0 3.18055e-015 -3.18056e-015 -0 18.853 19.4819 25.9881 48.1796 -0.132831 32.2393 -14.0376 1.88721 88.9074 -71.911 29.89 48.8135 7.06225e-031 -1.27222e-014 3.18055e-015 7.06225e-031 -1.27222e-014 3.18055e-015 -0.251596 -1.9924 -4.43438 
33.0582 95.9364 -28.8781 0.308943 -0.272526 3.07261 -0.363631 1.93961 0.601751 5.08168 -3.31703 5.95122 -0.558282 6.81594 -11.8266 5.11735 -1.57916 -0.187023 -1.44448 -5.10361 2.72757 -2.97935 -2.91429 -2.22639 0.165484 10.3615 0.276578 -5.92631 -9.095 0.740699 2.159 -7.30214 2.18484 -0.746234 3.87527 1.21622 -0.746652 3.87526 1.21652 1.48501 -10.9482 -4.98086 -26.4359 10.7292 2.68472 -55.8921 44.3599 3.35168 17.1021 2.7927 -21.6006 8.52348 1.9066 -4.17447 -6.36111e-015 3.18055e-015 1.59028e-015 -9.54166e-015 0 -0 19.3841 19.7859 24.8752 47.4644 -0.588948 30.259 -12.3084 2.11572 89.2117 -70.2726 28.0455 48.1176 0 3.18055e-015 -0 3.18055e-015 3.18056e-015 -3.18055e-015 -0.754375 -2.18572 -4.32483 
33.0421 95.9379 -28.9282 0.324878 -0.211917 2.98872 -0.363521 1.92565 0.514361 5.05162 -3.28777 5.97479 -0.573247 6.63381 -11.7853 5.34196 -1.29343 -0.206855 -1.39524 -5.28393 2.69573 -3.02859 -2.98689 -2.03061 0.259361 10.3318 0.383414 -5.96479 -9.08414 0.629675 2.15546 -7.28761 2.18308 -0.749479 3.84133 1.04218 -0.749669 3.84138 1.04204 1.45639 -11.0516 -4.76156 -26.4108 10.8562 2.75181 -55.9823 43.7591 3.51892 17.2317 3.1572 -21.7988 9.17511 1.70753 -4.50341 -3.18055e-015 -9.54166e-015 -1.59028e-015 3.18055e-015 -9.54167e-015 -0 20.877 20.0203 23.9253 47.2074 -1.88384 27.2933 -13.2627 4.97908 90.5032 -69.21 26.7661 46.3956 3.18055e-015 0 -1.59028e-015 3.18055e-015 -3.18056e-015 -1.59028e-015 -0.710759 -2.38242 -4.12152 
33.0042 95.9334 -28.9596 0.304753 -0.180403 3.10371 -0.360642 1.92795 0.387144 5.12436 -3.38725 6.12122 -0.60994 6.6918 -11.8775 5.42953 -1.24515 -0.210907 -1.32466 -5.35518 2.60999 -2.9795 -3.02799 -2.03059 0.269165 10.3228 0.466609 -6.01697 -9.08926 0.533711 2.15693 -7.29284 2.19476 -0.735236 3.85336 0.787177 -0.737032 3.85337 0.787124 1.28812 -11.1044 -4.56823 -26.1909 10.8706 3.05884 -55.8909 43.2177 3.30522 17.1952 3.16644 -21.9203 9.12714 1.75583 -4.35921 -6.36111e-015 -1.27222e-014 9.54166e-015 -6.36111e-015 -9.54167e-015 7.95139e-015 22.4731 20.2012 22.9474 45.9261 -3.07502 22.4147 -11.1972 5.21431 91.4815 -66.8875 25.7515 47.0801 3.53112e-031 1.27222e-014 -1.59028e-015 5.29669e-031 9.54167e-015 -3.18055e-015 -0.530743 -2.7618 -4.01549 
32.9818 95.9307 -28.9476 0.264897 -0.213882 3.29326 -0.360727 1.94903 0.342635 5.2239 -3.45508 5.99068 -0.675637 6.81277 -11.8342 5.28507 -1.39428 -0.202157 -1.36088 -5.26492 2.63259 -2.9054 -2.9348 -1.97626 0.277115 10.2234 0.396073 -6.08261 -9.05099 0.39286 2.16886 -7.35386 2.22248 -0.732138 3.89581 0.698085 -0.733185 3.89582 0.698083 1.4392 -11.1438 -4.61497 -26.2131 10.8851 3.07183 -55.7542 43.3323 2.94223 17.0447 2.86688 -21.7004 9.06861 1.67885 -4.34513 3.18055e-015 0 -0 3.18055e-015 -3.18056e-015 1.59028e-015 23.7845 20.2183 21.5115 43.925 -2.34911 16.2521 -10.6161 4.99372 91.5327 -62.2637 24.4098 45.0901 6.36111e-015 6.36111e-015 -3.18055e-015 3.18055e-015 3.18056e-015 -0 -0.656027 -2.91464 -4.00519 
32.9886 95.9273 -28.8955 0.300698 -0.282399 3.4639 -0.365933 1.95979 0.318233 5.1962 -3.40571 5.99815 -0.666166 6.84156 -12.0025 5.30402 -1.41291 -0.198845 -1.37733 -5.24943 2.65557 -2.92494 -2.77529 -2.05831 0.261208 10.166 0.277985 -6.06526 -9.09808 0.459395 2.17489 -7.35303 2.2215 -0.745437 3.9146 0.649868 -0.744436 3.91461 0.649805 1.67366 -10.881 -4.66292 -26.378 10.6334 2.89905 -55.7057 43.5596 2.86967 17.0148 2.48413 -21.6567 9.02765 1.92664 -4.19769 -3.18055e-015 6.36111e-015 -1.59028e-015 -3.18055e-015 6.36111e-015 -3.18055e-015 24.2524 19.7139 20.2156 42.9642 0.291212 9.44833 -11.0986 3.78047 89.2131 -57.5527 24.3337 43.4577 3.18055e-015 9.54166e-015 -3.18055e-015 3.18055e-015 9.54167e-015 -3.18055e-015 -0.865693 -3.02416 -3.95602 
